<svg id="Vrstva_1" xmlns="http://www.w3.org/2000/svg" xmlns:xlink="http://www.w3.org/1999/xlink" x="0px" y="0px" viewBox="0 0 198.1 84.7" xml:space="preserve" class="css-1tvrmni"><style type="text/css">
	.st0{fill:#FFFFFF;}
</style><g><g><path class="st0" d="M9,9.6c0-1.4,1.5-2.8,4-2.8c3.4,0,6.8,1.6,8.7,3.1l3.1-5.8c-2-1.9-6-4.1-12.2-4.1C6,0,0.9,3.5,0.9,9.8 c0,11.7,17.3,8.8,17.3,14c0,2-1.9,3-4.2,3c-3.2,0-8.1-1.9-10-4l-4,5.4c1.5,2.3,7.5,5.5,13.4,5.5c7.8,0,13-3.9,13-10.3 C26.4,12,9,15,9,9.6z"></path><path class="st0" d="M53.7,0.8v21.3c-1.9,2.4-4.5,3.9-7.2,3.9c-4.5,0-6.1-3.1-6.1-7.3V0.8h-8.2v19.6c0,9.2,5,13.3,11.3,13.3 c5,0,8.3-2.4,10.3-4.7v3.9H62V0.8H53.7z"></path><path class="st0" d="M96.8,2.6C94.5,0.9,91.7,0,88.4,0c-4.1,0-7.9,1.7-9.9,3.8v-3h-8.2v45.4l8.2-4.6v-9.5c1.9,1.1,4.6,1.6,7.5,1.6 c0.3,0,0.5,0,0.7,0c9.8-0.3,16.2-7.8,16.2-17.3C102.9,10.4,100.7,5.4,96.8,2.6z M85.2,26c-2.7,0-4.6-0.4-6.8-1.9v-13 c2-2.2,4.6-3.5,7.3-3.5c5.4,0,8.4,3.7,8.4,8.8C94.2,21.9,91,26,85.2,26z"></path><path class="st0" d="M139.6,14.9c0-9-6.9-14.9-15.2-14.9c-10.6,0-17,7.5-17,16.8c0,10.1,6.9,16.8,17.3,16.8c4.5,0,9-1.3,12.3-4 l-2.4-5.8c-1.9,1.5-5.1,2.9-9,2.9c-5.1,0-8.9-2.6-9.6-7.5h23.2C139.5,18.1,139.6,16.9,139.6,14.9z M115.6,13.8 c0.9-4.2,3.5-7,8.4-7c4.7,0,7.4,3.1,7.3,7H115.6z"></path><path class="st0" d="M161.1,0.2c-3.8,0-5.8,1.6-7.3,3.7V0.8h-8.2v32.1h8.2V11.3c0.9-1.9,2.4-3.4,5.3-3.4c1.7,0,2.6,0.3,4.1,1.2 l2.9-7.7C165,0.6,163.7,0.2,161.1,0.2z"></path></g><g><path class="st0" d="M40.2,75.2C39.1,76,37.5,77,35.3,77c-2.7,0-3.8-2.3-3.8-5.8V59.6h10.3v-7.7H31.5v-13l-8.2,4.6v28.2 c0,1.9,0.1,3.6,0.5,5.1c1,5,3.9,7.8,9.5,7.8c4.1,0,7.5-1.6,9.4-3.1L40.2,75.2z"></path><path class="st0" d="M73.8,52.8c-2.9-1-6.3-1.7-9.7-1.7c-10.8,0-18.3,7.5-18.3,16.8c0,10,6.1,16.8,15.7,16.8 c3.6,0,6.7-1.4,8.8-3.3V84h8.2V55C77.2,54.2,75.6,53.4,73.8,52.8z M54.5,68.3c0-5,3.3-9.5,9.5-9.5c1.2,0,2.3,0.2,3.4,0.5 c1,0.3,1.9,0.6,2.8,1.1v13.4c-0.7,0.8-1.7,1.6-2.8,2.1c-1.4,0.7-2.9,1.2-4.5,1.2C58,77.1,54.5,73.9,54.5,68.3z"></path><path class="st0" d="M87.6,43.6V84h8.2V39L87.6,43.6z"></path><path class="st0" d="M135.1,66c0-9-6.9-14.8-15.1-14.8c-10.5,0-16.9,7.5-16.9,16.8c0,10.1,6.9,16.8,17.2,16.8c4.5,0,9-1.3,12.2-4 l-2.3-5.8c-1.9,1.5-5.1,2.9-9,2.9c-5,0-8.9-2.6-9.6-7.5h23.1C135,69.2,135.1,68,135.1,66z M111.2,64.9c0.9-4.2,3.5-7,8.4-7 c4.7,0,7.4,3,7.3,7H111.2z"></path><path class="st0" d="M166.2,53.1c-2.1-1.2-4.7-1.8-7.7-1.8c-3.8,0-7.2,1.7-9.2,3.8v-3.2h-8.2v32h8.2V62.1c1.9-1.9,4.2-3,7-3 c1.6,0,2.9,0.3,4,0.9c2.1,1.1,3.2,3.3,3.2,6.6v17.3h8.2V65.1C171.7,58.9,169.6,55.1,166.2,53.1z"></path><path class="st0" d="M195.6,75.1c-1.1,0.9-2.7,1.9-4.9,1.9c-2.7,0-3.8-2.3-3.8-5.8V59.6h10.3v-7.7h-10.3v-13l-8.2,4.6v28.2 c0,1.9,0.1,3.6,0.5,5.1c1,5,3.9,7.7,9.5,7.7c4.1,0,7.5-1.6,9.5-3.1L195.6,75.1z"></path></g></g></svg>